<?xml version="1.0" standalone="no"?>
<!DOCTYPE svg PUBLIC "-//W3C//DTD SVG 20010904//EN"
 "http://www.w3.org/TR/2001/REC-SVG-20010904/DTD/svg10.dtd">
<svg version="1.0" xmlns="http://www.w3.org/2000/svg"
 width="803.000000pt" height="42.000000pt" viewBox="0 0 803.000000 42.000000"
 preserveAspectRatio="xMidYMid meet">

<g transform="translate(0.000000,42.000000) scale(0.100000,-0.100000)"
fill="#000000" stroke="none">
<path d="M0 210 l0 -210 4015 0 4015 0 0 210 0 210 -4015 0 -4015 0 0 -210z
m523 -15 l46 -135 -30 0 c-24 0 -32 6 -40 30 -10 28 -14 30 -60 30 -47 0 -51
-2 -60 -30 -9 -24 -17 -30 -39 -30 l-29 0 46 135 45 135 38 0 38 0 45 -135z
m137 25 l0 -110 60 0 c57 0 60 -1 60 -25 0 -25 -1 -25 -90 -25 l-90 0 0 135 0
135 30 0 30 0 0 -110z m220 0 l0 -110 60 0 c57 0 60 -1 60 -25 0 -25 -1 -25
-90 -25 l-90 0 0 135 0 135 30 0 30 0 0 -110z"/>
<path d="M422 221 c-16 -52 -16 -51 18 -51 17 0 30 4 30 9 0 11 -29 81 -34 81
-1 0 -8 -17 -14 -39z"/>
</g>
</svg>
